<svg id="Calque_1" data-name="Calque 1" xmlns="http://www.w3.org/2000/svg" viewBox="0 0 368.27 205.12"><defs><style>.cls-1{fill:#fff;}</style></defs><path class="cls-1" d="M31,50.88h15.2a19,19,0,0,1,19,19A18.29,18.29,0,0,1,59.61,83.3a19.4,19.4,0,0,1-4,3.07,11.41,11.41,0,0,1-9.51,17.71H31Zm7.6,30.4h7.6a11.39,11.39,0,0,0,8.06-19.46,11,11,0,0,0-8.06-3.34h-7.6Zm0,7.6v7.6h7.6A3.79,3.79,0,0,0,48.83,90a3.67,3.67,0,0,0-2.68-1.12Z" transform="translate(-30.95 -14.4)"/><path class="cls-1" d="M75.23,83.9v20.18h-7.6V50.88h15.2a19,19,0,0,1,19,19A18.29,18.29,0,0,1,96.28,83.3a19.14,19.14,0,0,1-6.57,4.37l16.41,16.41H95.41Zm0-25.42v22.8h7.6a11.39,11.39,0,0,0,8-19.46,11,11,0,0,0-8-3.34Z" transform="translate(-30.95 -14.4)"/><path class="cls-1" d="M113.23,104.08h-7.6V50.88h7.6Z" transform="translate(-30.95 -14.4)"/><path class="cls-1" d="M142.68,50.88h11.41v7.6H142.68a19,19,0,0,0-19,19,19,19,0,0,0,19,19h3.8V81.28h-7.6v-7.6h15.21v30.4H142.68a26.6,26.6,0,0,1-26.6-26.6,26.6,26.6,0,0,1,26.6-26.6Z" transform="translate(-30.95 -14.4)"/><path class="cls-1" d="M156.77,175.5H144.46l28-161.1,28,161.1H188.18L172.47,87.65Z" transform="translate(-30.95 -14.4)"/><path class="cls-1" d="M202.84,50.88a26.61,26.61,0,0,1,26.61,26.6,26.61,26.61,0,0,1-26.61,26.6h-11.4V50.88Zm0,45.6a19,19,0,0,0,19-19,19,19,0,0,0-19-19H199v38Z" transform="translate(-30.95 -14.4)"/><path class="cls-1" d="M266.5,50.88v7.6H239.9v22.8h26.6v7.6H239.9v7.6h26.6v7.6H232.3V50.88Z" transform="translate(-30.95 -14.4)"/><path class="cls-1" d="M117.57,160v15.1H110V122.23h34v7.55H117.57v22.65H144V160Z" transform="translate(-30.95 -14.4)"/><path class="cls-1" d="M214,140.21v35.16h-7.48V112l26.2,46.16V123h7.49v63.42Z" transform="translate(-30.95 -14.4)"/><path class="cls-1" d="M263.43,130.44v44.93h-7.49V130.44h-13.1V123h33.69v7.48Z" transform="translate(-30.95 -14.4)"/><path class="cls-1" d="M295.33,175.37a26.21,26.21,0,0,1-18.53-44.74,26.21,26.21,0,1,1,37.06,37.07A25.27,25.27,0,0,1,295.33,175.37Zm0-7.49a18.73,18.73,0,1,0-13.23-5.48A18,18,0,0,0,295.33,167.88Z" transform="translate(-30.95 -14.4)"/><path class="cls-1" d="M331.83,147.7v27.67h-7.49V119.44l18.72,33,18.72-33V219.52h-7.49V147.7l-11.23,19.81Z" transform="translate(-30.95 -14.4)"/><path class="cls-1" d="M399.22,123v7.48H373v22.47h26.21v7.49H373v7.48h26.21v7.49H365.53V123Z" transform="translate(-30.95 -14.4)"/></svg>